<?xml version="1.0" encoding="iso-8859-1"?>
<!-- Generator: Adobe Illustrator 19.0.0, SVG Export Plug-In . SVG Version: 6.00 Build 0)  -->
<svg version="1.1" id="Capa_1" xmlns="http://www.w3.org/2000/svg" xmlns:xlink="http://www.w3.org/1999/xlink" x="0px" y="0px"
	 viewBox="0 0 511.957 511.957" style="enable-background:new 0 0 511.957 511.957;" xml:space="preserve">
<g transform="matrix(1.25 0 0 -1.25 0 45)">
	<g>
		<g>
			<path style="fill:#FFAC33;" d="M319.367-320.716c-25.361,0-96.347-8.932-114.551-20.844
				c-18.216,11.913-89.202,20.844-114.563,20.844c-29.184,0-13.21-11.822-13.21-26.419c0-14.586-15.974-26.431,13.21-26.431
				c25.361,0,96.347,8.943,114.563,20.844c18.204-11.901,89.19-20.844,114.551-20.844c29.184,0,13.21,11.844,13.21,26.431
				C332.577-332.538,348.551-320.716,319.367-320.716"/>
			<path style="fill:#292F33;" d="M361.01-144.52c-14.222,28.433-35.863,56.832-56.229,76.493C276.883-6.223,236.173,36,204.793,36
				c-31.391,0-72.101-42.212-99.988-104.016c-20.378-19.672-42.018-48.071-56.24-76.504
				c-27.739-55.478-35.453-130.002-23.643-135.896c9.933-4.972,26.442,17.647,47.878,57.822
				c3.038-123.745,80.179-124.587,131.994-124.587c51.792,0,128.944,0.842,131.982,124.564
				c21.436-40.152,37.945-62.771,47.866-57.799C396.452-274.522,388.749-199.998,361.01-144.52"/>
			<path style="fill:#F5F8FA;" d="M246.606-42.916c-9.671-6.906-24.713-13.494-41.813-13.494s-32.142,6.588-41.813,13.494
				C125.41-67.231,99.093-123.255,99.093-188.54c0-87.552,47.32-158.549,105.7-158.549c58.391,0,105.711,70.997,105.711,158.549
				C310.504-123.255,284.187-67.231,246.606-42.916"/>
			<path style="fill:#FFAC33;" d="M323.714-32.221h-66.082c-43.77,0-52.838,8.875-52.838,19.831
				c0,10.945-4.142,19.809,39.629,19.809C310.504,7.419,336.923-32.221,323.714-32.221"/>
			<path style="fill:#F5F8FA;" d="M191.583-3.583c0-7.305-5.916-13.221-13.21-13.221c-7.305,0-13.21,5.916-13.21,13.221
				c0,7.293,5.905,13.21,13.21,13.21C185.667,9.626,191.583,3.71,191.583-3.583"/>
		</g>
	</g>
</g>
<g>
</g>
<g>
</g>
<g>
</g>
<g>
</g>
<g>
</g>
<g>
</g>
<g>
</g>
<g>
</g>
<g>
</g>
<g>
</g>
<g>
</g>
<g>
</g>
<g>
</g>
<g>
</g>
<g>
</g>
</svg>
